<?xml version="1.0" encoding="utf-8"?>
<!-- Generator: Adobe Illustrator 24.3.0, SVG Export Plug-In . SVG Version: 6.00 Build 0)  -->
<svg version="1.1" id="Layer_1" xmlns="http://www.w3.org/2000/svg" xmlns:xlink="http://www.w3.org/1999/xlink" x="0px" y="0px"
	 viewBox="0 0 841.9 595.3" style="enable-background:new 0 0 841.9 595.3;" xml:space="preserve">
<style type="text/css">
	.st0{fill:#BE1E2D;}
</style>
<symbol  id="Favorite" viewBox="-32 -36.8 64 61">
	<g>
		<path class="st0" d="M14.7,24.2c0.9,0,1.9,0,2.9-0.1c6.3-0.6,13.5-6.4,14.4-17.4V3C31.2-7.5,23.2-20.5,0-36.8
			C-23.2-20.5-31.2-7.5-32,3v3.7c0.9,11,8.1,16.7,14.4,17.4c1,0.1,2,0.1,2.9,0.1c7.2,0,10.7-3.1,14.7-7.9C4,21.1,7.5,24.2,14.7,24.2
			 M14.7,17.2c-4.2,0-5.9-1.3-9.3-5.4L0,5.4l-5.4,6.4c-3.4,4.1-5.2,5.4-9.3,5.4c-0.7,0-1.4,0-2.2-0.1c-2.9-0.3-7.4-3.4-8.1-10.7V3.3
			c0.9-9.2,9.3-19.8,25-31.5C15.7-16.4,24.1-5.9,25,3.3v3.1c-0.7,7.3-5.2,10.4-8.1,10.7C16.1,17.1,15.4,17.2,14.7,17.2L14.7,17.2z"
			/>
		<g>
			<g>
				<path class="st0" d="M-3,12.2c-6.1,5.4-12.6,10.5-20,4.1c-6.5-5.6-5.8-15.1-2.4-22.3c1.6-3.3,4-6.2,6.8-8.4c2.2-1.7,5.4-2.7,7-5
					c2-2.8,2.5-5.7,5.6-7.9c4.5-3.1,9.2-2.5,13.2,1C13.5-21,20.4-14.9,25.7-8.6c5.1,6.1,7,14.3,2.5,21.3c-4.6,7.2-14.5,9.6-21.9,5.3
					C3,16,0.6,13.1-2,10.3c-2.8-3-6.1-5.7-8.9-8.7C-14.2-1.9-15.1-7-12.1-11c3.1-4.1,9.1-4.4,13.7-3.3c8.6,2.1,14.8,8.7,17.7,16.8
					c1.3,3.7-1.5,9.2-5.6,9.8c-5.2,0.8-9.9-0.6-14.9-1.8C-3.7,10-6,9.3-8.4,8.8c-1.5-0.3-5.4-1.9-6.5-1.7c1.9-1.9,3.7-3.7,5.6-5.6
					C-9.5,1.7-9.5,1.9-9.6,2c-0.3-2.1-0.5-4.1-0.8-6.2c0.1,0.2,0.2,0.4,0.4,0.6c-1-1-1.9-1.9-2.9-2.9c1.5,1,5.9-0.9,7.2-1.3
					c9.9-3,14.1,12.5,4.3,15.4c-5.3,1.6-10.8,2.7-16.2,1.2c-5-1.4-8.9-6.2-7.2-11.6c0.8-2.5,2.8-5.1,5.6-5.6
					C-8.8-10,2.2-4.2,12.4-2.9c-1.4,0-2.8,0-4.3,0C8.6-2.9,9-3,9.4-3C7.6,0.2,5.7,3.5,3.8,6.8C2.5,3.1-1,0.8-4.9,1.3
					c1.3-0.4,2.7-0.7,4-1.1c-0.3,0.2-0.6,0.3-0.9,0.5C-0.6-0.8,0.6-2.4,1.9-4C1.8-3.7,1.7-3.5,1.7-3.2C1.4-5.2,1.1-7.3,0.9-9.4
					c0.4,0.9,2.8,2.7,3.9,3.7c1.8,1.7,3.5,3.5,5.2,5.3c0.8,0.9,4.4,5.2,4.8,4.4c0.8-1.8-6.3-7.1-7.4-8.2C3.9-7.5,0.3-12-3.8-14.5
					c2.1,0.3,4.1,0.5,6.2,0.8c-0.5,0.2-0.9,0.3-1.4,0.5c1.2-0.7,2.4-1.4,3.5-2.1c-1.5,1.4-2,3.8-3.2,5.6c-1.7,2.5-4.1,4.3-6.7,5.9
					c-2,1.2-3.9,2-5.1,4c-0.7,1-1.1,2.2-1.3,3.4c0,0.2-0.1,0.5-0.1,0.7c0.3,2.1-0.2,2-1.4-0.3c-1.4,0-2.8,0-4.3,0
					c0.9-0.4,2.5-2.3,3.3-3.1C-6.6-5.9,4.8,5.4-3,12.2L-3,12.2z"/>
			</g>
		</g>
	</g>
</symbol>
<use xlink:href="#Favorite"  width="64" height="61" id="XMLID_1_" x="-32" y="-36.8" transform="matrix(2.8655 0 0 -2.8655 350.6961 376.9813)" style="overflow:visible;"/>
</svg>
